<svg xmlns="http://www.w3.org/2000/svg" width="512" height="512" viewBox="0 0 512 512" role="img" aria-labelledby="title desc">
  <title id="title">ANN Studio Logo</title>
  <desc id="desc">Minimal ANN monogram using clean neural links and nodes.</desc>
  <defs>
    <linearGradient id="bg" x1="0" y1="0" x2="1" y2="1">
      <stop offset="0" stop-color="#6fe8db" />
      <stop offset="1" stop-color="#f4c56a" />
    </linearGradient>
    <linearGradient id="ink" x1="0" y1="0" x2="1" y2="1">
      <stop offset="0" stop-color="#0f2338" />
      <stop offset="1" stop-color="#173d61" />
    </linearGradient>
  </defs>

  <rect x="40" y="40" width="432" height="432" rx="110" fill="url(#bg)" />
  <rect x="56" y="56" width="400" height="400" rx="94" fill="none" stroke="#0f2338" stroke-opacity="0.14" stroke-width="6" />

  <g stroke="url(#ink)" stroke-width="16" stroke-linecap="round" fill="none" opacity="0.86">
    <path d="M112 344 L146 176 L180 344" />
    <path d="M123 290 H169" />

    <path d="M224 344 V176" />
    <path d="M224 176 L304 344" />
    <path d="M304 344 V176" />

    <path d="M338 344 V176" />
    <path d="M338 176 L418 344" />
    <path d="M418 344 V176" />
  </g>

  <g fill="url(#ink)">
    <circle cx="112" cy="344" r="12" />
    <circle cx="146" cy="176" r="12" />
    <circle cx="180" cy="344" r="12" />
    <circle cx="123" cy="290" r="8" />
    <circle cx="169" cy="290" r="8" />

    <circle cx="224" cy="344" r="12" />
    <circle cx="224" cy="176" r="12" />
    <circle cx="304" cy="344" r="12" />
    <circle cx="304" cy="176" r="12" />

    <circle cx="338" cy="344" r="12" />
    <circle cx="338" cy="176" r="12" />
    <circle cx="418" cy="344" r="12" />
    <circle cx="418" cy="176" r="12" />
  </g>
</svg>
