<svg xmlns="http://www.w3.org/2000/svg" width="64" height="64" viewBox="0 0 64 64">
	<defs>
		<linearGradient id="g" x1="0" y1="0" x2="1" y2="1">
			<stop offset="0" stop-color="#6fe8db" />
			<stop offset="1" stop-color="#f4c56a" />
		</linearGradient>
	</defs>
	<rect x="4" y="4" width="56" height="56" rx="15" fill="url(#g)" />
	<g stroke="#0f2338" stroke-width="3" stroke-linecap="round" fill="none" stroke-opacity="0.84">
		<path d="M10 45 L14 19 L18 45" />
		<path d="M11.8 36 H16.2" />

		<path d="M24 45 V19" />
		<path d="M24 19 L34 45" />
		<path d="M34 45 V19" />

		<path d="M40 45 V19" />
		<path d="M40 19 L50 45" />
		<path d="M50 45 V19" />
	</g>
	<g fill="#143252">
		<circle cx="10" cy="45" r="2.4" />
		<circle cx="14" cy="19" r="2.4" />
		<circle cx="18" cy="45" r="2.4" />
		<circle cx="11.8" cy="36" r="1.8" />
		<circle cx="16.2" cy="36" r="1.8" />

		<circle cx="24" cy="45" r="2.4" />
		<circle cx="24" cy="19" r="2.4" />
		<circle cx="34" cy="45" r="2.4" />
		<circle cx="34" cy="19" r="2.4" />

		<circle cx="40" cy="45" r="2.4" />
		<circle cx="40" cy="19" r="2.4" />
		<circle cx="50" cy="45" r="2.4" />
		<circle cx="50" cy="19" r="2.4" />
	</g>
</svg>